<?xml version="1.0" encoding="UTF-8"?>
<!DOCTYPE svg PUBLIC "-//W3C//DTD SVG 1.1//EN" "http://www.w3.org/Graphics/SVG/1.1/DTD/svg11.dtd">
<svg xmlns="http://www.w3.org/2000/svg" version="1.1" width="347px" height="142px" style="shape-rendering:geometricPrecision; text-rendering:geometricPrecision; image-rendering:optimizeQuality; fill-rule:evenodd; clip-rule:evenodd" xmlns:xlink="http://www.w3.org/1999/xlink">
<g><path style="opacity:0.761" fill="#fefffe" d="M 62.5,-0.5 C 67.8333,-0.5 73.1667,-0.5 78.5,-0.5C 105.543,3.86227 124.877,18.5289 136.5,43.5C 136.192,44.3081 135.692,44.9747 135,45.5C 132.564,45.454 130.064,45.1207 127.5,44.5C 120.596,31.3166 110.596,21.3166 97.5,14.5C 95.5932,18.054 93.5932,21.554 91.5,25C 87.5,26.6667 83.5,28.3333 79.5,30C 77.0137,35.6066 73.1803,36.7733 68,33.5C 65.5878,30.2027 65.0878,26.7027 66.5,23C 65.5472,18.2849 63.2139,14.4515 59.5,11.5C 57.0314,13.0066 54.8647,12.6732 53,10.5C 50.1836,11.6623 47.3503,12.8289 44.5,14C 43.0685,16.8424 42.5685,19.6757 43,22.5C 39.864,24.3195 36.864,26.3195 34,28.5C 33.6905,29.7659 33.1905,30.9326 32.5,32C 35.6777,34.5139 38.8444,37.0139 42,39.5C 42.5,39.1667 43,38.8333 43.5,38.5C 42.4233,35.5258 42.4233,32.5258 43.5,29.5C 44.8734,29.6567 46.2068,29.49 47.5,29C 45.9559,28.7104 44.6226,28.0437 43.5,27C 45.8176,23.5252 46.8176,19.6918 46.5,15.5C 51.3334,15.644 55,17.644 57.5,21.5C 58.7362,22.2458 60.0695,22.5792 61.5,22.5C 62.2436,25.9496 60.9103,27.6162 57.5,27.5C 56.8059,33.8324 59.3059,38.8324 65,42.5C 65.6667,44.1667 65.6667,45.8333 65,47.5C 62.7342,48.9563 60.2342,49.7896 57.5,50C 58.8333,50.6667 58.8333,51.3333 57.5,52C 53.1571,54.8375 48.4904,57.0042 43.5,58.5C 45.357,65.5726 47.5237,72.5726 50,79.5C 53.4448,71.0623 56.2781,62.3957 58.5,53.5C 61.1194,53.2317 63.6194,53.565 66,54.5C 68.6667,63.1667 71.3333,71.8333 74,80.5C 77.5272,71.7502 80.3605,62.7502 82.5,53.5C 84.924,53.1924 87.2573,53.5258 89.5,54.5C 85.6321,65.4372 81.9654,76.4372 78.5,87.5C 75.8333,88.8333 73.1667,88.8333 70.5,87.5C 67.7693,78.8077 64.9359,70.141 62,61.5C 59.5594,68.806 57.5594,76.1394 56,83.5C 60.2935,84.2491 63.4601,86.9158 65.5,91.5C 70.1249,92.8172 74.4583,94.6505 78.5,97C 77.207,102.753 74.707,107.919 71,112.5C 63.652,117.358 57.152,123.025 51.5,129.5C 79.07,137.144 102.237,130.144 121,108.5C 123.293,104.748 125.46,100.914 127.5,97C 129.926,97.0479 132.259,96.8812 134.5,96.5C 134.833,97.1667 135.167,97.8333 135.5,98.5C 124.225,123.113 105.225,137.446 78.5,141.5C 73.1667,141.5 67.8333,141.5 62.5,141.5C 27.6232,134.957 6.62325,114.29 -0.5,79.5C -0.5,73.5 -0.5,67.5 -0.5,61.5C 6.62325,26.7099 27.6232,6.04327 62.5,-0.5 Z M 41.5,52.5 C 41.5,52.8333 41.5,53.1667 41.5,53.5C 39.4727,53.6621 37.4727,53.4955 35.5,53C 35.8333,52.6667 36.1667,52.3333 36.5,52C 32.5858,51.1034 32.7524,50.6034 37,50.5C 38.7866,50.7586 40.2866,51.4253 41.5,52.5 Z M 33.5,54.5 C 34.4972,54.4701 35.1639,54.9701 35.5,56C 36.3084,58.7609 37.3084,61.4276 38.5,64C 36.7174,65.0665 36.2174,66.5665 37,68.5C 38,68.8333 39,69.1667 40,69.5C 42,75.5 44,81.5 46,87.5C 48.4009,88.6023 50.9009,88.769 53.5,88C 54.1905,86.9326 54.6905,85.7659 55,84.5C 55.6924,85.0253 56.1924,85.6919 56.5,86.5C 55.1936,87.9122 54.3603,89.5789 54,91.5C 53.6667,90.8333 53.3333,90.1667 53,89.5C 50.2258,90.523 47.3925,90.523 44.5,89.5C 43.801,86.4271 42.801,83.4271 41.5,80.5C 37.342,75.5094 32.6754,71.0094 27.5,67C 30.1897,66.2291 32.8564,65.3958 35.5,64.5C 35.8333,63.8333 36.1667,63.1667 36.5,62.5C 35.1,59.9646 34.1,57.298 33.5,54.5 Z M 8.5,65.5 C 10.5558,68.0494 13.2224,69.5494 16.5,70C 18.4845,74.8387 22.1512,77.5053 27.5,78C 30.6667,80.5 33.8333,83 37,85.5C 33.7744,94.7593 35.9411,102.593 43.5,109C 41.0007,113.513 39.1673,118.346 38,123.5C 17.3124,109.793 7.47904,90.4594 8.5,65.5 Z"/></g>
<g><path style="opacity:0.885" fill="#fefffe" d="M 130.5,51.5 C 132.5,51.5 134.5,51.5 136.5,51.5C 136.334,55.8461 136.501,60.1794 137,64.5C 149.663,57.6207 157.496,61.1207 160.5,75C 159.475,84.3607 154.308,89.194 145,89.5C 140.181,88.9089 135.348,88.5755 130.5,88.5C 130.5,76.1667 130.5,63.8333 130.5,51.5 Z M 143.5,65.5 C 150.267,65.1015 153.601,68.2682 153.5,75C 153.491,81.3429 150.324,84.8429 144,85.5C 137.136,85.878 134.636,82.7113 136.5,76C 136.833,73.5 137.167,71 137.5,68.5C 139.604,67.4805 141.604,66.4805 143.5,65.5 Z"/></g>
<g><path style="opacity:0.819" fill="#fefffe" d="M 289.5,51.5 C 291.833,51.5 294.167,51.5 296.5,51.5C 296.169,58.8635 296.503,66.1968 297.5,73.5C 301.167,70.3333 304.833,67.1667 308.5,64C 311.702,62.5167 315.036,62.1834 318.5,63C 313.954,67.0522 309.287,70.8855 304.5,74.5C 309.325,79.1565 314.325,83.6565 319.5,88C 316.036,88.8166 312.702,88.4833 309.5,87C 306.283,83.4826 302.783,80.3159 299,77.5C 298.333,78.1667 297.667,78.8333 297,79.5C 296.502,82.4816 296.335,85.4816 296.5,88.5C 294.167,88.5 291.833,88.5 289.5,88.5C 289.5,76.1667 289.5,63.8333 289.5,51.5 Z"/></g>
<g><path style="opacity:0.847" fill="#fefffe" d="M 165.5,54.5 C 167.895,53.1857 170.395,53.1857 173,54.5C 175.465,62.895 178.132,71.2283 181,79.5C 184.445,71.0623 187.278,62.3957 189.5,53.5C 192.119,53.2317 194.619,53.565 197,54.5C 199.667,63.1667 202.333,71.8333 205,80.5C 208.527,71.7502 211.361,62.7502 213.5,53.5C 215.924,53.1924 218.257,53.5258 220.5,54.5C 216.7,65.0677 213.2,75.7343 210,86.5C 208.82,87.6841 207.32,88.3507 205.5,88.5C 203.68,88.3507 202.18,87.6841 201,86.5C 198.535,78.105 195.868,69.7717 193,61.5C 190.333,70.1667 187.667,78.8333 185,87.5C 182.599,88.6023 180.099,88.769 177.5,88C 173.573,76.7137 169.573,65.5471 165.5,54.5 Z"/></g>
<g><path style="opacity:0.872" fill="#fefffe" d="M 102.5,61.5 C 107.599,61.1746 112.599,61.6746 117.5,63C 121.917,66.4302 123.584,70.9302 122.5,76.5C 114.472,76.169 106.472,76.5023 98.5,77.5C 99.5377,82.3525 102.538,84.8525 107.5,85C 112.604,84.9766 117.604,84.1433 122.5,82.5C 123.122,87.0318 121.122,89.1985 116.5,89C 111.833,89.6667 107.167,89.6667 102.5,89C 99.4522,88.3936 96.9522,86.8936 95,84.5C 94.6667,84.8333 94.3333,85.1667 94,85.5C 92.4453,80.6178 92.112,75.6178 93,70.5C 94.775,65.888 97.9417,62.888 102.5,61.5 Z M 105.5,65.5 C 110.702,64.8863 114.369,66.8863 116.5,71.5C 110.528,72.6636 104.528,72.8303 98.5,72C 100.101,68.8932 102.435,66.7265 105.5,65.5 Z"/></g>
<g><path style="opacity:0.856" fill="#fefffe" d="M 232.5,61.5 C 249.476,59.0159 256.309,66.0159 253,82.5C 247.771,89.0963 240.938,91.2629 232.5,89C 223.938,85.152 221.105,78.652 224,69.5C 226.074,65.9231 228.907,63.2565 232.5,61.5 Z M 236.5,65.5 C 246.56,66.6103 249.727,71.9436 246,81.5C 241,86.8333 236,86.8333 231,81.5C 228.017,74.2758 229.85,68.9425 236.5,65.5 Z"/></g>
<g><path style="opacity:0.904" fill="#fefffe" d="M 262.5,62.5 C 264.5,62.5 266.5,62.5 268.5,62.5C 268.351,63.552 268.517,64.552 269,65.5C 273.472,62.9441 278.305,61.9441 283.5,62.5C 283.5,63.8333 283.5,65.1667 283.5,66.5C 278.511,66.0395 273.844,67.0395 269.5,69.5C 268.504,75.7985 268.17,82.1318 268.5,88.5C 266.5,88.5 264.5,88.5 262.5,88.5C 262.5,79.8333 262.5,71.1667 262.5,62.5 Z"/></g>
<g><path style="opacity:0.711" fill="#fefffe" d="M 209.5,96.5 C 210.5,96.5 211.5,96.5 212.5,96.5C 212.5,101.5 212.5,106.5 212.5,111.5C 211.5,111.5 210.5,111.5 209.5,111.5C 209.5,106.5 209.5,101.5 209.5,96.5 Z"/></g>
<g><path style="opacity:0.751" fill="#fefffe" d="M 274.5,102.5 C 276.82,100.774 279.487,100.107 282.5,100.5C 282.5,99.1667 282.5,97.8333 282.5,96.5C 283.5,96.5 284.5,96.5 285.5,96.5C 285.5,101.5 285.5,106.5 285.5,111.5C 277.185,113.838 273.518,110.838 274.5,102.5 Z M 279.5,102.5 C 281.722,102.559 282.722,103.725 282.5,106C 280.556,110.503 278.89,110.503 277.5,106C 277.862,104.566 278.528,103.399 279.5,102.5 Z"/></g>
<g><path style="opacity:0.703" fill="#fefffe" d="M 142.5,97.5 C 146.182,97.3347 149.848,97.5014 153.5,98C 158.726,102.251 158.726,106.585 153.5,111C 149.848,111.499 146.182,111.665 142.5,111.5C 142.5,106.833 142.5,102.167 142.5,97.5 Z M 146.5,99.5 C 153.201,99.4487 155.201,102.282 152.5,108C 150.655,109.128 148.655,109.628 146.5,109.5C 146.5,106.167 146.5,102.833 146.5,99.5 Z"/></g>
<g><path style="opacity:0.699" fill="#fefffe" d="M 217.5,97.5 C 220.119,97.2317 222.619,97.565 225,98.5C 225.677,100.982 224.844,102.815 222.5,104C 223.416,104.374 224.25,104.874 225,105.5C 225.71,104.027 226.876,103.36 228.5,103.5C 226.558,107.122 227.558,109.622 231.5,111C 226.545,111.245 221.545,111.079 216.5,110.5C 214.216,108.137 214.216,105.637 216.5,103C 215.145,100.872 215.478,99.0383 217.5,97.5 Z M 219.5,99.5 C 222.674,99.9522 223.007,100.952 220.5,102.5C 218.481,101.867 218.147,100.867 219.5,99.5 Z M 219.5,104.5 C 221.791,105.542 222.791,107.042 222.5,109C 218.707,109.487 217.707,107.987 219.5,104.5 Z"/></g>
<g><path style="opacity:0.704" fill="#fefffe" d="M 230.5,98.5 C 231.568,97.5655 232.901,97.2322 234.5,97.5C 235.505,107.49 237.005,108.157 239,99.5C 239.953,97.4078 241.286,97.0745 243,98.5C 244.683,107.807 246.35,107.807 248,98.5C 249.183,97.269 250.349,97.269 251.5,98.5C 249.965,102.437 248.632,106.437 247.5,110.5C 246.311,111.429 244.978,111.762 243.5,111.5C 242.224,100.461 240.557,100.128 238.5,110.5C 237.311,111.429 235.978,111.762 234.5,111.5C 233.922,106.835 232.589,102.501 230.5,98.5 Z"/></g>
<g><path style="opacity:0.681" fill="#fefffe" d="M 159.5,100.5 C 163.5,100.5 167.5,100.5 171.5,100.5C 171.063,103.807 171.73,106.807 173.5,109.5C 174.167,109.167 174.833,108.833 175.5,108.5C 176.48,105.914 176.813,103.247 176.5,100.5C 177.833,100.5 179.167,100.5 180.5,100.5C 180.5,104.167 180.5,107.833 180.5,111.5C 177.15,111.665 173.817,111.498 170.5,111C 168.821,108.435 168.154,105.602 168.5,102.5C 166.738,102.357 165.071,102.691 163.5,103.5C 162.52,106.086 162.187,108.753 162.5,111.5C 161.5,111.5 160.5,111.5 159.5,111.5C 159.5,107.833 159.5,104.167 159.5,100.5 Z"/></g>
<g><path style="opacity:0.739" fill="#fefffe" d="M 182.5,100.5 C 185.85,100.335 189.183,100.502 192.5,101C 195.822,108.181 193.489,111.681 185.5,111.5C 185.5,112.833 185.5,114.167 185.5,115.5C 184.5,115.5 183.5,115.5 182.5,115.5C 182.5,110.5 182.5,105.5 182.5,100.5 Z M 187.5,102.5 C 192.553,104.492 192.72,106.825 188,109.5C 186.115,109.138 185.281,107.971 185.5,106C 185.862,104.566 186.528,103.399 187.5,102.5 Z"/></g>
<g><path style="opacity:0.796" fill="#fefffe" d="M 196.5,100.5 C 199.777,100.216 202.943,100.549 206,101.5C 206.498,104.817 206.665,108.15 206.5,111.5C 203.482,111.665 200.482,111.498 197.5,111C 195.473,109.604 195.14,107.938 196.5,106C 198.715,104.956 201.048,104.29 203.5,104C 200.808,103.257 198.475,102.09 196.5,100.5 Z M 200.5,106.5 C 202.355,106.272 203.188,106.939 203,108.5C 201.365,109.849 199.865,109.682 198.5,108C 199.416,107.722 200.082,107.222 200.5,106.5 Z"/></g>
<g><path style="opacity:0.722" fill="#fefffe" d="M 253.5,100.5 C 262.363,99.3383 265.029,102.672 261.5,110.5C 252.236,112.667 249.569,109.333 253.5,100.5 Z M 256.5,102.5 C 261.289,104.2 261.622,106.533 257.5,109.5C 253.99,107.573 253.656,105.24 256.5,102.5 Z"/></g>
<g><path style="opacity:0.709" fill="#fefffe" d="M 274.5,102.5 C 272.738,102.357 271.071,102.691 269.5,103.5C 268.52,106.086 268.187,108.753 268.5,111.5C 267.5,111.5 266.5,111.5 265.5,111.5C 265.5,107.833 265.5,104.167 265.5,100.5C 269.012,99.9455 272.012,100.612 274.5,102.5 Z"/></g>
<g><path style="opacity:0.739" fill="#fefffe" d="M 288.5,100.5 C 291.85,100.335 295.183,100.502 298.5,101C 301.822,108.181 299.489,111.681 291.5,111.5C 291.5,112.833 291.5,114.167 291.5,115.5C 290.5,115.5 289.5,115.5 288.5,115.5C 288.5,110.5 288.5,105.5 288.5,100.5 Z M 293.5,102.5 C 298.553,104.492 298.72,106.825 294,109.5C 292.115,109.138 291.281,107.971 291.5,106C 291.862,104.566 292.528,103.399 293.5,102.5 Z"/></g>
<g><path style="opacity:0.709" fill="#fefffe" d="M 311.5,102.5 C 309.738,102.357 308.071,102.691 306.5,103.5C 305.52,106.086 305.187,108.753 305.5,111.5C 304.5,111.5 303.5,111.5 302.5,111.5C 302.5,107.833 302.5,104.167 302.5,100.5C 306.012,99.9455 309.012,100.612 311.5,102.5 Z"/></g>
<g><path style="opacity:0.8" fill="#fefffe" d="M 311.5,102.5 C 314.177,100.568 317.177,100.068 320.5,101C 322.155,102.444 322.822,104.278 322.5,106.5C 319.482,106.335 316.482,106.502 313.5,107C 314.774,108.221 316.274,109.054 318,109.5C 319.578,108.453 321.078,108.453 322.5,109.5C 322.291,110.086 321.957,110.586 321.5,111C 313.523,113.177 310.19,110.344 311.5,102.5 Z M 315.5,102.5 C 317.103,102.312 318.437,102.812 319.5,104C 317.833,104.667 316.167,104.667 314.5,104C 315.056,103.617 315.389,103.117 315.5,102.5 Z"/></g>
<g><path style="opacity:0.744" fill="#fefffe" d="M 325.5,100.5 C 328.187,100.336 330.854,100.503 333.5,101C 334.902,102.342 334.569,103.176 332.5,103.5C 330.742,102.554 329.075,102.554 327.5,103.5C 329.369,104.624 331.369,105.457 333.5,106C 334.86,107.938 334.527,109.604 332.5,111C 329.854,111.497 327.187,111.664 324.5,111.5C 324.5,110.5 324.5,109.5 324.5,108.5C 326.06,108.519 327.56,108.852 329,109.5C 330.059,109.37 330.892,108.87 331.5,108C 329.238,107.358 327.071,106.525 325,105.5C 324.36,103.735 324.527,102.068 325.5,100.5 Z"/></g>
<g><path style="opacity:0.749" fill="#fefffe" d="M 337.5,100.5 C 339.857,100.337 342.19,100.503 344.5,101C 345.993,102.156 345.826,102.99 344,103.5C 341.972,102.032 340.138,102.199 338.5,104C 340.5,104.667 342.5,105.333 344.5,106C 345.833,107.667 345.833,109.333 344.5,111C 341.518,111.498 338.518,111.665 335.5,111.5C 335.5,110.5 335.5,109.5 335.5,108.5C 344.594,109.525 344.761,108.525 336,105.5C 335.387,103.505 335.887,101.838 337.5,100.5 Z"/></g>
<g><path style="opacity:0.697" fill="#fefffe" d="M 171.5,115.5 C 172.251,114.427 173.251,114.26 174.5,115C 173.552,115.483 172.552,115.649 171.5,115.5 Z"/></g>
<g><path style="opacity:0.779" fill="#fefffe" d="M 267.5,115.5 C 268.251,114.427 269.251,114.26 270.5,115C 269.552,115.483 268.552,115.649 267.5,115.5 Z"/></g>
</svg>
